<svg xmlns="http://www.w3.org/2000/svg" viewBox="0 0 28 28" fill="none">
  <!-- Garbage: bin with lifted lid -->
  <path d="M6.8 9.4h14.4l-1.2 13a2.4 2.4 0 0 1-2.4 2.2h-7.2a2.4 2.4 0 0 1-2.4-2.2l-1.2-13z" fill="#15803D" fill-opacity="0.14"/>
  <path d="M6.8 9.4h14.4l-1.2 13a2.4 2.4 0 0 1-2.4 2.2h-7.2a2.4 2.4 0 0 1-2.4-2.2l-1.2-13z" stroke="#15803D" stroke-width="1.8" stroke-linejoin="round"/>
  <path d="M4.8 6.4h18.4" stroke="#15803D" stroke-width="1.8" stroke-linecap="round"/>
  <path d="M10.8 6.4V5a1.6 1.6 0 0 1 1.6-1.6h3.2A1.6 1.6 0 0 1 17.2 5v1.4" stroke="#15803D" stroke-width="1.8" stroke-linecap="round"/>
  <path d="M11.4 13v7M14 13v7M16.6 13v7" stroke="#15803D" stroke-width="1.5" stroke-linecap="round" stroke-opacity="0.65"/>
</svg>
