<svg xmlns="http://www.w3.org/2000/svg" viewBox="0 0 28 28" fill="none">
  <!-- Stagnant water: droplet over still ripples -->
  <path d="M14 3.4s6.2 6.8 6.2 11a6.2 6.2 0 1 1-12.4 0c0-4.2 6.2-11 6.2-11z" fill="#0891B2" fill-opacity="0.15"/>
  <path d="M14 3.4s6.2 6.8 6.2 11a6.2 6.2 0 1 1-12.4 0c0-4.2 6.2-11 6.2-11z" stroke="#0891B2" stroke-width="1.8" stroke-linejoin="round"/>
  <path d="M11.2 14.6c0.2 1.6 1.3 2.7 2.8 2.9" stroke="#0891B2" stroke-width="1.5" stroke-linecap="round" stroke-opacity="0.65"/>
  <path d="M4.4 24c1.6 1.1 3.2 1.1 4.8 0s3.2-1.1 4.8 0 3.2 1.1 4.8 0 3.2-1.1 4.8 0" stroke="#0891B2" stroke-width="1.6" stroke-linecap="round"/>
</svg>
