<svg xmlns="http://www.w3.org/2000/svg" viewBox="0 0 96 96" fill="none">
  <!-- Map empty-state: "be the first" pin illustration -->
  <ellipse cx="48" cy="82" rx="22" ry="5.5" fill="#6366F1" fill-opacity="0.14"/>
  <ellipse cx="48" cy="82" rx="13" ry="3.4" fill="#6366F1" fill-opacity="0.18"/>
  <path d="M48 10c-13.8 0-25 10.8-25 24.2 0 17 19.4 36.2 23.6 40.1 0.8 0.8 2 0.8 2.8 0C53.6 70.4 73 51.2 73 34.2 73 20.8 61.8 10 48 10z" fill="url(#pinGrad)"/>
  <path d="M48 10c-13.8 0-25 10.8-25 24.2 0 17 19.4 36.2 23.6 40.1 0.8 0.8 2 0.8 2.8 0C53.6 70.4 73 51.2 73 34.2 73 20.8 61.8 10 48 10z" stroke="#4F46E5" stroke-width="2.4" stroke-linejoin="round"/>
  <circle cx="48" cy="34" r="13" fill="#FFFFFF"/>
  <path d="M48 27.6v12.8M41.6 34h12.8" stroke="#6366F1" stroke-width="3.2" stroke-linecap="round"/>
  <path d="M20 30c-1.6-4.4-1.2-9 1.2-13M76 30c1.6-4.4 1.2-9-1.2-13" stroke="#22D3EE" stroke-width="2.4" stroke-linecap="round" stroke-opacity="0.6"/>
  <circle cx="26" cy="12" r="2" fill="#22D3EE" fill-opacity="0.7"/>
  <circle cx="71" cy="10" r="1.6" fill="#6366F1" fill-opacity="0.6"/>
  <defs>
    <linearGradient id="pinGrad" x1="30" y1="14" x2="66" y2="70" gradientUnits="userSpaceOnUse">
      <stop stop-color="#818CF8"/>
      <stop offset="1" stop-color="#6366F1"/>
    </linearGradient>
  </defs>
</svg>
