<svg xmlns="http://www.w3.org/2000/svg" viewBox="0 0 28 28" fill="none">
  <!-- Report FAB camera: white on indigo button -->
  <path d="M4.2 9.8c0-1.3 1.1-2.4 2.4-2.4h2.6l1.5-2.2c0.4-0.7 1.2-1.1 2-1.1h2.6c0.8 0 1.6 0.4 2 1.1l1.5 2.2h2.6c1.3 0 2.4 1.1 2.4 2.4v10.4c0 1.3-1.1 2.4-2.4 2.4H6.6c-1.3 0-2.4-1.1-2.4-2.4V9.8z" fill="#FFFFFF" fill-opacity="0.16"/>
  <path d="M4.2 9.8c0-1.3 1.1-2.4 2.4-2.4h2.6l1.5-2.2c0.4-0.7 1.2-1.1 2-1.1h2.6c0.8 0 1.6 0.4 2 1.1l1.5 2.2h2.6c1.3 0 2.4 1.1 2.4 2.4v10.4c0 1.3-1.1 2.4-2.4 2.4H6.6c-1.3 0-2.4-1.1-2.4-2.4V9.8z" stroke="#FFFFFF" stroke-width="1.8" stroke-linejoin="round"/>
  <circle cx="14" cy="14.6" r="4.2" stroke="#FFFFFF" stroke-width="1.8"/>
  <circle cx="20.6" cy="10.4" r="0.9" fill="#FFFFFF"/>
</svg>
