<svg xmlns="http://www.w3.org/2000/svg" viewBox="0 0 28 28" fill="none">
  <!-- Resources tab: megaphone (official channels) -->
  <path d="M4 12.2v3.6c0 0.9 0.7 1.6 1.6 1.6h2.2l9.8 4.9c1 0.5 2.2-0.2 2.2-1.3V6.6c0-1.1-1.2-1.8-2.2-1.3L7.8 10.6H5.6c-0.9 0-1.6 0.7-1.6 1.6z" fill="#6366F1" fill-opacity="0.13"/>
  <path d="M4 12.2v3.6c0 0.9 0.7 1.6 1.6 1.6h2.2l9.8 4.9c1 0.5 2.2-0.2 2.2-1.3V6.6c0-1.1-1.2-1.8-2.2-1.3L7.8 10.6H5.6c-0.9 0-1.6 0.7-1.6 1.6z" stroke="#6366F1" stroke-width="1.8" stroke-linejoin="round"/>
  <path d="M8.6 18v3.4c0 1 0.8 1.8 1.8 1.8h0.4c1 0 1.8-0.8 1.8-1.8v-1.6" stroke="#6366F1" stroke-width="1.6" stroke-linecap="round"/>
  <path d="M23.2 11.2c0.9 0.7 1.4 1.7 1.4 2.8s-0.5 2.1-1.4 2.8" stroke="#6366F1" stroke-width="1.6" stroke-linecap="round" stroke-opacity="0.6"/>
</svg>
