<svg xmlns="http://www.w3.org/2000/svg" viewBox="0 0 28 28" fill="none">
  <!-- Helpline call (TMC 1800, BMC 1916) -->
  <path d="M7.2 4.6l2.9-0.9c0.8-0.2 1.6 0.2 1.9 1l1.3 3.4c0.3 0.7 0.1 1.5-0.5 2l-1.8 1.5c1 2.4 2.9 4.3 5.3 5.3l1.5-1.8c0.5-0.6 1.3-0.8 2-0.5l3.4 1.3c0.8 0.3 1.2 1.1 1 1.9l-0.9 2.9c-0.3 0.9-1.1 1.5-2 1.4C11.9 21.5 6.5 16.1 5.8 6.6c-0.1-0.9 0.5-1.7 1.4-2z" fill="#F59E0B" fill-opacity="0.14"/>
  <path d="M7.2 4.6l2.9-0.9c0.8-0.2 1.6 0.2 1.9 1l1.3 3.4c0.3 0.7 0.1 1.5-0.5 2l-1.8 1.5c1 2.4 2.9 4.3 5.3 5.3l1.5-1.8c0.5-0.6 1.3-0.8 2-0.5l3.4 1.3c0.8 0.3 1.2 1.1 1 1.9l-0.9 2.9c-0.3 0.9-1.1 1.5-2 1.4C11.9 21.5 6.5 16.1 5.8 6.6c-0.1-0.9 0.5-1.7 1.4-2z" stroke="#F59E0B" stroke-width="1.7" stroke-linejoin="round"/>
  <path d="M17.5 6.5c1.9 0.8 3.4 2.3 4.2 4.2" stroke="#F59E0B" stroke-width="1.6" stroke-linecap="round"/>
  <path d="M18.6 3.4c2.9 1.2 5.2 3.5 6.4 6.4" stroke="#F59E0B" stroke-width="1.6" stroke-linecap="round" stroke-opacity="0.55"/>
</svg>
