<svg xmlns="http://www.w3.org/2000/svg" viewBox="0 0 32 42" fill="none" aria-hidden="true">
  <!-- Open garbage — hazard-garbage #15803D -->
  <ellipse cx="16" cy="39.6" rx="5" ry="1.9" fill="#0F172A" fill-opacity="0.28"/>
  <path d="M16 2.1C9.3 2.1 3.9 7.5 3.9 14.2c0 8.4 9.55 19.65 11.4 21.45a1 1 0 0 0 1.4 0C18.55 33.85 28.1 22.6 28.1 14.2 28.1 7.5 22.7 2.1 16 2.1z" stroke="#FFFFFF" stroke-width="2.6" stroke-linejoin="round"/>
  <path d="M16 2.1C9.3 2.1 3.9 7.5 3.9 14.2c0 8.4 9.55 19.65 11.4 21.45a1 1 0 0 0 1.4 0C18.55 33.85 28.1 22.6 28.1 14.2 28.1 7.5 22.7 2.1 16 2.1z" fill="#15803D" stroke="#0F172A" stroke-opacity="0.55" stroke-width="1.35" stroke-linejoin="round"/>
  <path d="M11.2 11.1h9.6l-.75 8.2a1.55 1.55 0 0 1-1.55 1.4h-5a1.55 1.55 0 0 1-1.55-1.4l-.75-8.2z" fill="#FFFFFF"/>
  <path d="M10.2 9.6h11.6M13.6 9.6V8.5a1 1 0 0 1 1-1h2.8a1 1 0 0 1 1 1v1.1" stroke="#FFFFFF" stroke-width="1.5" stroke-linecap="round"/>
</svg>
