<svg xmlns="http://www.w3.org/2000/svg" viewBox="0 0 28 36" fill="none" aria-hidden="true">
  <!-- Resolved / fixed pin  success #047857 + check -->
  <ellipse cx="14" cy="34.2" rx="4.2" ry="1.6" fill="#0F172A" fill-opacity="0.18"/>
  <path d="M14 1.8C8.15 1.8 3.4 6.55 3.4 12.4c0 7.35 8.35 17.2 9.95 18.75a.9.9 0 0 0 1.3 0C16.25 29.6 24.6 19.75 24.6 12.4 24.6 6.55 19.85 1.8 14 1.8z" fill="#047857"/>
  <path d="M14 1.8C8.15 1.8 3.4 6.55 3.4 12.4c0 7.35 8.35 17.2 9.95 18.75a.9.9 0 0 0 1.3 0C16.25 29.6 24.6 19.75 24.6 12.4 24.6 6.55 19.85 1.8 14 1.8z" stroke="#0F172A" stroke-opacity="0.12" stroke-width="1"/>
  <circle cx="14" cy="12.2" r="5.6" fill="#FFFFFF"/>
  <path d="M11.1 12.25l1.85 1.85 4-4.1" stroke="#047857" stroke-width="1.85" stroke-linecap="round" stroke-linejoin="round"/>
</svg>
