<svg xmlns="http://www.w3.org/2000/svg" viewBox="0 0 32 42" fill="none" aria-hidden="true">
  <!-- Open streetlight — hazard-streetlight #A16207 (gold, high contrast on OSM) -->
  <ellipse cx="16" cy="39.6" rx="5" ry="1.9" fill="#0F172A" fill-opacity="0.28"/>
  <path d="M16 2.1C9.3 2.1 3.9 7.5 3.9 14.2c0 8.4 9.55 19.65 11.4 21.45a1 1 0 0 0 1.4 0C18.55 33.85 28.1 22.6 28.1 14.2 28.1 7.5 22.7 2.1 16 2.1z" stroke="#FFFFFF" stroke-width="2.6" stroke-linejoin="round"/>
  <path d="M16 2.1C9.3 2.1 3.9 7.5 3.9 14.2c0 8.4 9.55 19.65 11.4 21.45a1 1 0 0 0 1.4 0C18.55 33.85 28.1 22.6 28.1 14.2 28.1 7.5 22.7 2.1 16 2.1z" fill="#A16207" stroke="#0F172A" stroke-opacity="0.55" stroke-width="1.35" stroke-linejoin="round"/>
  <path d="M16 18.8V11.2" stroke="#FFFFFF" stroke-width="1.8" stroke-linecap="round"/>
  <path d="M12.4 11.2c0-2 1.6-3.6 3.6-3.6h.05c2 0 3.55 1.6 3.55 3.6v1.1H12.4v-1.1z" fill="#FFFFFF"/>
  <path d="M13.6 18.8h4.8" stroke="#FFFFFF" stroke-width="1.8" stroke-linecap="round"/>
</svg>
